<svg width="60" height="13" viewBox="0 0 60 13" fill="none" xmlns="http://www.w3.org/2000/svg">
<path d="M6.608 12.176C5.392 12.176 4.352 11.936 3.488 11.456C2.624 10.976 1.95733 10.304 1.488 9.44C1.02933 8.56533 0.8 7.536 0.8 6.352C0.8 5.46667 0.928 4.672 1.184 3.968C1.45067 3.25333 1.83467 2.64533 2.336 2.144C2.83733 1.632 3.44533 1.23733 4.16 0.959999C4.88533 0.682666 5.70133 0.544 6.608 0.544C7.14133 0.544 7.68 0.613333 8.224 0.752C8.77867 0.879999 9.25867 1.06667 9.664 1.312C9.93067 1.46133 10.112 1.648 10.208 1.872C10.304 2.096 10.3307 2.32 10.288 2.544C10.256 2.768 10.1653 2.96 10.016 3.12C9.87733 3.28 9.70133 3.38133 9.488 3.424C9.27467 3.46667 9.03467 3.41867 8.768 3.28C8.448 3.088 8.112 2.94933 7.76 2.864C7.408 2.77867 7.05067 2.736 6.688 2.736C5.97333 2.736 5.37067 2.88 4.88 3.168C4.4 3.44533 4.03733 3.85067 3.792 4.384C3.54667 4.91733 3.424 5.57333 3.424 6.352C3.424 7.12 3.54667 7.776 3.792 8.32C4.03733 8.864 4.4 9.28 4.88 9.568C5.37067 9.84533 5.97333 9.984 6.688 9.984C7.02933 9.984 7.376 9.94133 7.728 9.856C8.09067 9.77067 8.43733 9.63733 8.768 9.456C9.04533 9.31733 9.29067 9.26933 9.504 9.312C9.728 9.344 9.90933 9.44 10.048 9.6C10.1973 9.74933 10.288 9.93067 10.32 10.144C10.3627 10.3573 10.3413 10.5707 10.256 10.784C10.1707 10.9973 10.0107 11.1787 9.776 11.328C9.38133 11.5947 8.896 11.8027 8.32 11.952C7.744 12.1013 7.17333 12.176 6.608 12.176ZM16.9305 12.176C15.8212 12.176 14.8452 11.936 14.0025 11.456C13.1705 10.9653 12.5198 10.2827 12.0505 9.408C11.5918 8.53333 11.3625 7.51467 11.3625 6.352C11.3625 5.46667 11.4905 4.672 11.7465 3.968C12.0132 3.25333 12.3918 2.64533 12.8825 2.144C13.3732 1.632 13.9598 1.23733 14.6425 0.959999C15.3358 0.682666 16.0985 0.544 16.9305 0.544C18.0612 0.544 19.0425 0.784 19.8745 1.264C20.7065 1.744 21.3518 2.42133 21.8105 3.296C22.2798 4.16 22.5145 5.17333 22.5145 6.336C22.5145 7.22133 22.3812 8.02133 22.1145 8.736C21.8478 9.45067 21.4692 10.064 20.9785 10.576C20.4878 11.088 19.9012 11.4827 19.2185 11.76C18.5358 12.0373 17.7732 12.176 16.9305 12.176ZM16.9305 10.064C17.5598 10.064 18.0932 9.92 18.5305 9.632C18.9785 9.33333 19.3198 8.90667 19.5545 8.352C19.7998 7.78667 19.9225 7.12 19.9225 6.352C19.9225 5.17867 19.6612 4.272 19.1385 3.632C18.6158 2.98133 17.8798 2.656 16.9305 2.656C16.3118 2.656 15.7785 2.8 15.3305 3.088C14.8825 3.376 14.5412 3.79733 14.3065 4.352C14.0718 4.90667 13.9545 5.57333 13.9545 6.352C13.9545 7.51467 14.2158 8.42667 14.7385 9.088C15.2612 9.73867 15.9918 10.064 16.9305 10.064ZM27.697 12.144C27.2917 12.144 26.9823 12.032 26.769 11.808C26.5557 11.584 26.449 11.2693 26.449 10.864V2.768H23.617C23.2863 2.768 23.0303 2.67733 22.849 2.496C22.6677 2.31467 22.577 2.064 22.577 1.744C22.577 1.41333 22.6677 1.16267 22.849 0.992C23.0303 0.810666 23.2863 0.719999 23.617 0.719999H31.761C32.0917 0.719999 32.3477 0.810666 32.529 0.992C32.7103 1.16267 32.801 1.41333 32.801 1.744C32.801 2.064 32.7103 2.31467 32.529 2.496C32.3477 2.67733 32.0917 2.768 31.761 2.768H28.929V10.864C28.929 11.2693 28.8223 11.584 28.609 11.808C28.4063 12.032 28.1023 12.144 27.697 12.144ZM34.5751 12C34.2551 12 33.9938 11.936 33.7911 11.808C33.5885 11.6693 33.4498 11.488 33.3751 11.264C33.3111 11.0293 33.3111 10.7733 33.3751 10.496C33.4498 10.2187 33.5991 9.94133 33.8231 9.664L39.6471 2.032V2.784H34.3831C34.0311 2.784 33.7591 2.69333 33.5671 2.512C33.3858 2.33067 33.2951 2.07467 33.2951 1.744C33.2951 1.41333 33.3858 1.16267 33.5671 0.992C33.7591 0.810666 34.0311 0.719999 34.3831 0.719999H40.8151C41.1458 0.719999 41.4071 0.789333 41.5991 0.927999C41.8018 1.056 41.9405 1.232 42.0151 1.456C42.0898 1.68 42.0898 1.936 42.0151 2.224C41.9405 2.50133 41.7911 2.77867 41.5671 3.056L35.7431 10.672V9.936H41.2631C41.6151 9.936 41.8818 10.0267 42.0631 10.208C42.2551 10.3787 42.3511 10.6293 42.3511 10.96C42.3511 11.3013 42.2551 11.5627 42.0631 11.744C41.8818 11.9147 41.6151 12 41.2631 12H34.5751ZM44.9309 12.144C44.5255 12.144 44.2162 12.032 44.0029 11.808C43.7895 11.584 43.6829 11.2693 43.6829 10.864V1.856C43.6829 1.45067 43.7895 1.136 44.0029 0.912C44.2162 0.687999 44.5255 0.575999 44.9309 0.575999C45.3255 0.575999 45.6295 0.687999 45.8429 0.912C46.0562 1.136 46.1629 1.45067 46.1629 1.856V10.864C46.1629 11.2693 46.0562 11.584 45.8429 11.808C45.6402 12.032 45.3362 12.144 44.9309 12.144ZM48.7529 12.144C48.4542 12.144 48.2089 12.0747 48.0169 11.936C47.8355 11.7973 47.7182 11.6107 47.6649 11.376C47.6222 11.1413 47.6702 10.88 47.8089 10.592L51.9049 1.616C52.0755 1.25333 52.2782 0.992 52.5129 0.832C52.7475 0.661333 53.0195 0.575999 53.3289 0.575999C53.6382 0.575999 53.9102 0.661333 54.1449 0.832C54.3795 0.992 54.5769 1.25333 54.7369 1.616L58.8649 10.592C59.0035 10.88 59.0515 11.1467 59.0089 11.392C58.9769 11.6267 58.8702 11.8133 58.6889 11.952C58.5075 12.08 58.2729 12.144 57.9849 12.144C57.6222 12.144 57.3395 12.0587 57.1369 11.888C56.9449 11.7173 56.7742 11.4507 56.6249 11.088L55.6649 8.864L56.6569 9.552H49.9849L50.9769 8.864L50.0329 11.088C49.8729 11.4613 49.7022 11.7333 49.5209 11.904C49.3502 12.064 49.0942 12.144 48.7529 12.144ZM53.2969 3.36L51.2489 8.24L50.8169 7.616H55.8249L55.3929 8.24L53.3289 3.36H53.2969Z" fill="#0A0559"/>
</svg>
