<svg width="230" height="47" viewBox="0 0 230 47" fill="none" xmlns="http://www.w3.org/2000/svg">
<path d="M22.92 46.64C18.2267 46.64 14.1947 45.7013 10.824 43.824C7.496 41.904 4.936 39.216 3.144 35.76C1.352 32.2613 0.456 28.144 0.456 23.408C0.456 19.8667 0.968 16.688 1.992 13.872C3.016 11.0133 4.488 8.58133 6.408 6.576C8.328 4.528 10.6747 2.97066 13.448 1.904C16.264 0.794665 19.4213 0.239998 22.92 0.239998C25.2667 0.239998 27.5707 0.538664 29.832 1.136C32.0933 1.73333 34.0773 2.58666 35.784 3.696C36.68 4.25067 37.2773 4.93333 37.576 5.744C37.8747 6.512 37.9387 7.28 37.768 8.048C37.5973 8.77333 37.2347 9.392 36.68 9.904C36.168 10.416 35.5067 10.7147 34.696 10.8C33.928 10.8427 33.0747 10.5653 32.136 9.968C30.8133 9.11467 29.384 8.496 27.848 8.112C26.312 7.728 24.7547 7.536 23.176 7.536C20.1467 7.536 17.5867 8.15467 15.496 9.392C13.4053 10.6293 11.8267 12.4213 10.76 14.768C9.69333 17.1147 9.16 19.9947 9.16 23.408C9.16 26.7787 9.69333 29.6587 10.76 32.048C11.8267 34.4373 13.4053 36.2507 15.496 37.488C17.5867 38.7253 20.1467 39.344 23.176 39.344C24.7973 39.344 26.3973 39.152 27.976 38.768C29.5547 38.3413 31.048 37.7013 32.456 36.848C33.3947 36.2933 34.2267 36.0587 34.952 36.144C35.72 36.1867 36.36 36.4427 36.872 36.912C37.384 37.3813 37.7253 37.9787 37.896 38.704C38.0667 39.3867 38.024 40.112 37.768 40.88C37.512 41.6053 37 42.2453 36.232 42.8C34.5253 44.0373 32.4773 44.9973 30.088 45.68C27.7413 46.32 25.352 46.64 22.92 46.64ZM64.2145 46.64C59.8625 46.64 56.0438 45.68 52.7585 43.76C49.5158 41.84 46.9985 39.152 45.2065 35.696C43.4145 32.1973 42.5185 28.1013 42.5185 23.408C42.5185 19.8667 43.0305 16.688 44.0545 13.872C45.0785 11.0133 46.5292 8.58133 48.4065 6.576C50.3265 4.528 52.6092 2.97066 55.2545 1.904C57.9425 0.794665 60.9292 0.239998 64.2145 0.239998C68.6092 0.239998 72.4278 1.2 75.6705 3.12C78.9132 4.99733 81.4305 7.664 83.2225 11.12C85.0145 14.576 85.9105 18.6507 85.9105 23.344C85.9105 26.8853 85.3985 30.0853 84.3745 32.944C83.3505 35.8027 81.8785 38.256 79.9585 40.304C78.0812 42.352 75.7985 43.9307 73.1105 45.04C70.4652 46.1067 67.4998 46.64 64.2145 46.64ZM64.2145 39.6C66.9878 39.6 69.3345 38.96 71.2545 37.68C73.2172 36.4 74.7105 34.544 75.7345 32.112C76.8012 29.68 77.3345 26.7787 77.3345 23.408C77.3345 18.288 76.1825 14.32 73.8785 11.504C71.6172 8.688 68.3958 7.28 64.2145 7.28C61.4838 7.28 59.1372 7.92 57.1745 9.2C55.2118 10.4373 53.6972 12.272 52.6305 14.704C51.6065 17.0933 51.0945 19.9947 51.0945 23.408C51.0945 28.4853 52.2465 32.4533 54.5505 35.312C56.8545 38.1707 60.0758 39.6 64.2145 39.6ZM106.467 46.512C105.144 46.512 104.12 46.1493 103.395 45.424C102.712 44.656 102.371 43.6107 102.371 42.288V7.728H89.8905C88.7812 7.728 87.9065 7.42933 87.2665 6.832C86.6692 6.192 86.3705 5.33867 86.3705 4.272C86.3705 3.16267 86.6692 2.33066 87.2665 1.776C87.9065 1.17866 88.7812 0.879997 89.8905 0.879997H123.043C124.152 0.879997 125.005 1.17866 125.603 1.776C126.243 2.33066 126.562 3.16267 126.562 4.272C126.562 5.33867 126.243 6.192 125.603 6.832C125.005 7.42933 124.152 7.728 123.043 7.728H110.563V42.288C110.563 43.6107 110.221 44.656 109.539 45.424C108.856 46.1493 107.832 46.512 106.467 46.512ZM132.909 46C131.842 46 130.968 45.7867 130.285 45.36C129.645 44.9333 129.197 44.3573 128.941 43.632C128.728 42.864 128.728 42.032 128.941 41.136C129.197 40.1973 129.688 39.2373 130.413 38.256L154.861 5.104V7.728H132.269C131.074 7.728 130.157 7.42933 129.517 6.832C128.92 6.23466 128.621 5.38133 128.621 4.272C128.621 3.16267 128.92 2.33066 129.517 1.776C130.157 1.17866 131.074 0.879997 132.269 0.879997H158.765C159.832 0.879997 160.685 1.09333 161.325 1.52C162.008 1.94666 162.456 2.52266 162.669 3.248C162.925 3.97333 162.925 4.80533 162.669 5.744C162.456 6.68266 161.986 7.64266 161.261 8.624L136.813 41.712V39.152H160.365C161.56 39.152 162.456 39.4507 163.053 40.048C163.693 40.6027 164.013 41.4347 164.013 42.544C164.013 43.6533 163.693 44.5067 163.053 45.104C162.456 45.7013 161.56 46 160.365 46H132.909ZM173.899 46.512C172.576 46.512 171.552 46.1493 170.827 45.424C170.144 44.656 169.803 43.6107 169.803 42.288V4.592C169.803 3.22667 170.144 2.18133 170.827 1.456C171.552 0.730663 172.576 0.367996 173.899 0.367996C175.222 0.367996 176.224 0.730663 176.907 1.456C177.632 2.18133 177.995 3.22667 177.995 4.592V42.288C177.995 43.6107 177.654 44.656 176.971 45.424C176.288 46.1493 175.264 46.512 173.899 46.512ZM188.314 46.512C187.29 46.512 186.458 46.2773 185.818 45.808C185.22 45.3387 184.858 44.72 184.73 43.952C184.602 43.1413 184.751 42.2453 185.178 41.264L202.074 3.824C202.628 2.58666 203.29 1.712 204.058 1.2C204.868 0.64533 205.786 0.367996 206.81 0.367996C207.791 0.367996 208.666 0.64533 209.434 1.2C210.244 1.712 210.927 2.58666 211.482 3.824L228.442 41.264C228.911 42.2453 229.082 43.1413 228.954 43.952C228.826 44.7627 228.463 45.4027 227.866 45.872C227.268 46.2987 226.479 46.512 225.498 46.512C224.303 46.512 223.364 46.2347 222.682 45.68C222.042 45.0827 221.466 44.1867 220.954 42.992L216.794 33.328L220.25 35.568H193.242L196.698 33.328L192.602 42.992C192.047 44.2293 191.471 45.1253 190.874 45.68C190.276 46.2347 189.423 46.512 188.314 46.512ZM206.682 9.776L197.722 31.088L196.058 29.04H217.434L215.833 31.088L206.81 9.776H206.682Z" fill="white"/>
</svg>
